<?xml version="1.0" standalone="no"?>
<!DOCTYPE svg PUBLIC "-//W3C//DTD SVG 20010904//EN"
 "http://www.w3.org/TR/2001/REC-SVG-20010904/DTD/svg10.dtd">
<svg version="1.0" xmlns="http://www.w3.org/2000/svg"
 width="360.000000pt" height="800.000000pt" viewBox="0 1800 1987.000000 815.000000"
 preserveAspectRatio="xMidYMid meet">

<g transform="translate(0.000000,815.000000) scale(0.100000,-0.100000)"
fill="#000000" stroke="none">
<path d="M0 6793 l0 -1357 58 85 c32 46 82 118 113 159 30 41 69 96 85 122 17
28 36 48 47 48 21 0 51 47 73 115 25 76 143 270 240 395 24 30 61 93 82 140
32 69 52 97 104 145 37 34 74 80 86 106 12 25 49 72 82 103 33 32 60 61 60 65
0 4 22 33 49 64 27 31 52 65 55 75 4 11 17 24 30 30 35 16 103 99 140 172 27
54 43 72 95 107 34 22 77 55 95 71 59 53 86 62 196 62 82 0 108 4 141 20 50
26 100 28 134 6 29 -19 56 -72 48 -93 -8 -19 7 -16 75 17 105 51 313 127 400
146 66 15 81 22 76 34 -24 54 -15 112 21 136 32 21 209 50 352 59 126 7 201
-6 307 -56 34 -16 88 -35 121 -44 180 -46 280 -112 372 -246 17 -25 56 -64 86
-87 29 -23 81 -70 113 -104 75 -79 209 -282 224 -340 6 -23 18 -61 26 -83 27
-69 44 -183 44 -294 0 -87 -6 -130 -30 -226 -29 -113 -93 -279 -111 -291 -5
-3 -9 -17 -9 -32 0 -16 -18 -51 -45 -87 -25 -33 -45 -64 -45 -69 0 -5 -16 -41
-37 -80 -43 -85 -58 -137 -78 -274 -18 -126 -39 -176 -102 -243 -35 -38 -72
-62 -141 -95 -52 -25 -126 -66 -165 -93 -74 -50 -336 -291 -403 -371 -34 -40
-271 -277 -307 -306 -28 -23 -111 -54 -144 -54 -49 0 -93 45 -93 95 0 28 10
50 44 93 52 67 63 90 151 334 36 100 74 206 85 233 11 28 22 66 25 85 4 19 17
64 30 100 43 120 74 234 90 340 29 181 81 362 129 444 13 23 29 59 36 81 7 22
21 46 32 53 10 7 18 19 18 27 0 7 18 36 40 64 72 91 80 151 28 200 -46 43
-114 55 -268 48 -200 -8 -299 -49 -300 -124 0 -26 -5 -32 -28 -38 -41 -9 -97
-59 -129 -115 -15 -27 -38 -53 -50 -59 -16 -8 -27 -27 -40 -71 -16 -60 -53
-110 -79 -110 -8 0 -25 -18 -39 -41 -31 -48 -66 -65 -155 -75 -42 -4 -77 -15
-100 -30 -19 -14 -50 -24 -68 -24 -26 0 -52 -14 -115 -64 -138 -108 -154 -124
-161 -159 -3 -17 -19 -50 -35 -72 -27 -39 -104 -216 -123 -284 -6 -19 -22 -62
-38 -95 -15 -34 -31 -72 -35 -86 -4 -14 -15 -41 -25 -60 -10 -19 -28 -73 -40
-120 -31 -120 -39 -137 -109 -217 -36 -41 -70 -93 -79 -120 -10 -26 -25 -59
-34 -73 -27 -41 -128 -326 -128 -362 0 -7 -11 -35 -25 -62 -14 -27 -25 -55
-25 -62 0 -6 -9 -31 -20 -55 -11 -24 -20 -62 -20 -84 0 -23 -6 -47 -12 -53 -9
-9 -13 -57 -14 -156 -1 -137 -2 -145 -28 -192 -30 -53 -66 -212 -66 -292 0
-56 -34 -124 -128 -261 -72 -105 -67 -94 -82 -189 -15 -95 -52 -142 -110 -142
-22 0 -48 8 -63 20 -14 11 -27 20 -30 20 -2 0 -7 -25 -11 -55 -3 -30 -13 -73
-22 -95 -26 -64 -12 -152 31 -205 19 -23 41 -57 49 -76 8 -19 25 -40 38 -46
119 -54 152 -60 269 -42 108 16 167 51 238 143 63 81 83 93 189 116 142 30
200 60 260 133 27 34 77 87 111 117 139 124 412 402 505 515 27 33 111 121
186 195 139 137 178 187 243 316 59 117 145 256 183 297 20 21 54 47 75 58 24
12 39 26 39 38 0 12 22 32 66 57 45 26 91 66 143 124 121 135 164 175 233 213
79 45 251 102 355 117 126 19 321 132 414 241 77 89 260 274 286 287 39 21 87
15 116 -16 42 -43 36 -83 -27 -204 -30 -57 -91 -197 -136 -313 -121 -311 -152
-387 -169 -415 -50 -85 -92 -140 -188 -247 -198 -219 -245 -277 -279 -345 -29
-57 -62 -110 -144 -232 -8 -13 -54 -65 -102 -117 -48 -52 -97 -109 -110 -126
-96 -132 -227 -279 -431 -485 -97 -99 -186 -196 -196 -217 -11 -21 -38 -61
-61 -90 -23 -29 -48 -67 -55 -84 -8 -18 -31 -50 -52 -72 -21 -22 -53 -58 -71
-80 -173 -208 -286 -313 -432 -400 -36 -21 -99 -63 -140 -93 -114 -81 -234
-149 -350 -198 -58 -24 -114 -49 -124 -55 -33 -19 -376 -98 -496 -114 -63 -9
-144 -25 -180 -37 -94 -29 -167 -34 -227 -14 -33 11 -111 20 -229 26 -98 5
-189 12 -201 16 l-23 6 0 -591 0 -591 9935 0 9935 0 0 1860 c0 1023 -4 1860
-8 1860 -5 0 -65 -28 -134 -62 -302 -152 -351 -167 -486 -153 -114 13 -200 10
-263 -9 -55 -16 -56 -17 -73 -73 -10 -31 -21 -93 -25 -137 -9 -92 -15 -107
-79 -185 -24 -30 -50 -69 -57 -86 -7 -16 -22 -41 -32 -55 -11 -14 -23 -33 -26
-43 -12 -33 -101 -144 -132 -166 -17 -11 -40 -21 -52 -21 -17 0 -28 -22 -68
-126 -26 -69 -66 -155 -87 -190 -22 -36 -46 -83 -53 -105 -15 -41 -85 -172
-133 -246 -15 -23 -40 -62 -57 -88 -16 -26 -48 -70 -71 -98 -47 -61 -108 -175
-123 -233 -13 -49 -64 -104 -124 -133 -44 -21 -167 -126 -197 -166 -30 -42
-107 -108 -147 -126 -38 -18 -45 -18 -77 -5 -69 29 -74 87 -15 192 22 41 37
74 32 74 -18 0 -174 -250 -180 -287 -9 -59 -26 -85 -115 -175 -46 -45 -95
-105 -109 -133 -111 -213 -120 -224 -177 -225 -18 0 -42 5 -53 10 -25 14 -52
68 -46 94 20 88 64 252 97 363 22 72 40 138 40 145 1 35 57 142 140 269 51 77
125 204 165 282 39 78 118 232 175 342 71 138 112 231 132 300 44 151 82 233
169 364 43 66 79 124 79 129 0 5 20 39 44 77 45 67 88 162 101 222 6 29 4 33
-18 38 -16 4 -43 -1 -72 -14 -30 -13 -69 -21 -104 -21 -31 0 -83 -9 -116 -19
-33 -10 -94 -22 -135 -26 -41 -4 -122 -22 -180 -40 -58 -18 -127 -37 -155 -44
-44 -10 -198 -31 -232 -31 -11 0 -103 -87 -128 -121 -6 -8 -38 -50 -71 -94
-33 -44 -81 -111 -107 -150 -25 -38 -54 -79 -65 -90 -11 -11 -35 -42 -53 -70
-19 -27 -66 -84 -105 -125 -56 -59 -86 -103 -139 -205 -82 -156 -138 -239
-201 -294 -47 -41 -116 -84 -157 -97 -12 -4 -38 -21 -58 -38 -20 -17 -82 -67
-139 -111 -111 -87 -198 -175 -275 -280 -79 -107 -133 -162 -185 -188 -26 -13
-112 -42 -190 -63 l-142 -39 -49 -57 c-28 -31 -75 -71 -106 -88 -31 -18 -91
-65 -133 -105 -79 -75 -131 -101 -246 -120 -65 -11 -72 -15 -126 -61 -84 -71
-148 -81 -199 -30 l-25 25 -68 -53 c-42 -32 -74 -66 -83 -87 -22 -53 -41 -68
-114 -89 -41 -12 -74 -29 -83 -41 -22 -31 -137 -99 -168 -99 -16 0 -41 12 -60
29 -49 44 -43 71 56 265 101 198 113 215 171 257 31 22 45 40 45 56 0 12 15
63 34 112 36 96 129 246 262 421 104 137 130 184 217 391 111 267 142 315 347
554 62 72 158 189 213 260 179 231 210 268 336 392 l123 123 -28 10 c-70 25
-91 35 -129 58 -22 14 -45 31 -53 38 -22 23 -83 34 -127 24 -59 -14 -178 -12
-197 3 -73 59 -62 168 25 242 50 43 174 108 247 129 30 8 96 39 145 67 153 88
182 100 314 124 69 13 180 37 246 55 84 22 155 34 235 38 77 5 122 12 136 22
35 26 116 121 199 234 207 283 286 387 348 456 53 59 86 111 153 243 82 159
92 175 188 275 56 59 133 148 171 197 38 50 81 100 95 113 30 27 164 109 236
146 71 35 141 83 188 129 96 93 193 102 231 20 10 -20 13 -42 9 -56 -6 -20 -6
-21 12 -7 10 8 102 97 204 197 167 165 189 190 227 265 24 46 48 103 54 128
39 157 124 230 330 279 71 17 235 83 299 121 121 71 333 198 361 216 19 13 40
24 46 24 6 0 16 6 22 14 6 7 26 16 44 20 17 3 64 21 104 38 81 37 103 64 122
156 22 108 60 149 171 188 l80 27 0 364 0 363 -9935 0 -9935 0 0 -1357z
m12851 1128 c22 -22 29 -39 29 -67 0 -70 23 -169 51 -219 60 -109 73 -225 55
-505 -7 -99 -5 -129 14 -215 47 -215 46 -298 -5 -505 -32 -129 -53 -246 -65
-360 -13 -121 -61 -293 -106 -379 -19 -37 -35 -76 -34 -86 0 -11 0 -60 0 -110
-1 -253 -114 -544 -248 -637 -25 -17 -34 -59 -67 -318 -22 -168 -48 -275 -95
-393 -27 -66 -40 -115 -40 -146 0 -93 -81 -366 -173 -586 -26 -60 -47 -112
-47 -114 0 -2 7 2 15 9 8 6 28 48 46 93 105 273 297 556 489 718 167 142 281
276 415 489 161 255 265 396 380 519 35 36 75 91 90 121 39 78 150 240 244
358 67 84 221 264 241 282 3 3 48 52 100 110 51 58 132 148 179 200 200 221
306 378 331 486 26 116 34 141 58 182 34 59 89 103 199 158 179 90 339 231
513 454 132 170 281 326 326 340 65 22 120 -10 131 -73 4 -29 -3 -55 -40 -134
-26 -54 -60 -141 -76 -193 -17 -52 -69 -214 -115 -360 -107 -336 -208 -636
-243 -720 -63 -151 -192 -348 -317 -485 -49 -54 -54 -65 -31 -65 8 0 29 -13
46 -28 28 -25 32 -35 32 -75 -1 -41 -25 -94 -53 -117 -4 -3 -40 -45 -81 -95
-84 -101 -119 -157 -143 -230 -20 -64 -78 -163 -166 -285 -37 -52 -82 -119
-99 -148 -43 -73 -135 -196 -192 -257 -25 -27 -54 -65 -63 -83 -19 -38 -168
-246 -203 -283 -26 -28 -56 -86 -126 -246 -25 -56 -63 -128 -86 -161 -22 -33
-50 -84 -62 -114 -32 -82 -95 -176 -173 -258 -39 -41 -84 -97 -100 -125 -35
-60 -106 -161 -138 -195 -13 -14 -35 -43 -48 -64 -25 -41 -84 -114 -164 -201
-35 -38 -51 -67 -67 -120 -74 -246 -95 -307 -125 -365 -36 -69 -92 -135 -158
-185 -21 -17 -52 -50 -69 -75 -17 -25 -44 -59 -59 -75 -80 -89 -161 -233 -218
-390 -18 -49 -45 -108 -61 -131 -34 -50 -123 -128 -204 -179 -33 -21 -91 -64
-130 -94 -38 -31 -109 -82 -158 -114 -49 -33 -94 -71 -102 -87 -14 -27 -101
-110 -115 -110 -4 0 -32 -37 -64 -82 -153 -224 -199 -286 -235 -318 -34 -31
-39 -42 -44 -89 -4 -47 -9 -59 -37 -80 -67 -54 -96 -89 -113 -139 -33 -92 -89
-129 -151 -100 -17 9 -36 26 -42 39 -22 46 -49 225 -49 324 0 111 16 158 80
235 18 22 41 64 50 92 9 29 28 77 41 106 13 28 27 71 30 95 6 43 48 212 64
257 5 14 11 42 15 63 5 32 3 37 -14 37 -28 0 -71 56 -71 91 0 17 -18 98 -40
180 -22 83 -40 163 -40 179 0 15 10 57 21 92 15 44 24 104 29 198 5 74 13 222
19 328 12 192 11 192 -15 299 -48 198 -31 399 51 601 14 35 37 109 52 165 23
92 26 124 28 322 4 268 11 358 35 455 24 97 57 295 65 390 4 41 11 100 16 130
5 30 16 109 24 175 24 185 53 301 120 479 45 121 48 191 21 463 -14 132 -23
264 -20 294 6 77 40 162 84 211 44 50 141 240 165 321 9 32 23 97 30 145 22
144 41 169 240 305 34 23 63 54 75 77 11 22 38 54 61 72 23 18 51 53 64 78 56
114 89 167 135 220 30 34 50 67 50 81 0 75 28 113 100 138 24 8 44 26 64 57
54 86 133 109 187 55z m-5406 -17 c54 -25 60 -53 46 -222 -15 -176 -33 -261
-112 -522 -52 -173 -67 -260 -79 -440 -5 -85 -16 -181 -25 -212 -17 -64 -93
-261 -135 -353 -15 -33 -43 -98 -60 -145 -18 -47 -44 -114 -58 -150 -47 -123
-91 -207 -184 -346 -51 -76 -98 -145 -105 -152 -7 -7 -13 -15 -13 -16 0 -2 -4
-25 -9 -53 -9 -46 -35 -110 -102 -251 -17 -34 -39 -105 -49 -157 -20 -95 -53
-186 -94 -260 -13 -22 -26 -64 -30 -92 -7 -58 -62 -193 -98 -245 -13 -18 -41
-53 -64 -78 -22 -25 -62 -86 -88 -135 -75 -139 -127 -228 -152 -255 -12 -14
-43 -60 -68 -102 -26 -42 -97 -134 -159 -203 -177 -200 -204 -237 -212 -298
-4 -28 -13 -64 -21 -78 -13 -26 -100 -89 -121 -89 -20 0 -66 -64 -109 -154
-24 -49 -43 -91 -41 -92 1 -1 49 5 107 13 88 13 122 14 210 4 58 -6 130 -18
160 -26 70 -19 184 -19 340 1 148 18 376 21 444 5 34 -8 64 -9 104 -1 79 14
182 12 303 -6 178 -26 446 -73 542 -95 51 -11 139 -23 197 -26 98 -5 109 -3
163 21 72 32 146 35 200 6 48 -26 50 -25 64 8 6 15 36 81 66 148 30 66 76 183
102 260 51 148 105 258 180 364 25 36 55 85 68 110 12 26 32 59 45 74 13 17
22 43 22 62 0 19 12 64 26 101 14 38 39 103 54 145 47 128 189 343 278 423
153 136 198 203 357 540 78 164 161 298 236 380 15 17 39 61 53 98 34 91 93
202 168 318 69 105 244 343 315 427 75 88 275 382 304 446 13 29 19 65 19 122
0 165 43 231 203 310 163 80 222 137 390 374 174 246 258 342 313 360 25 9 40
8 67 -4 64 -26 72 -76 32 -188 -23 -65 -55 -239 -70 -388 -10 -97 -43 -325
-59 -405 -8 -38 -19 -119 -26 -178 -17 -166 -66 -319 -149 -462 -31 -53 -135
-202 -150 -215 -4 -3 -30 -41 -59 -85 -66 -103 -144 -276 -194 -435 -61 -191
-153 -409 -202 -480 -36 -51 -196 -397 -280 -605 -59 -144 -87 -207 -130 -285
-13 -25 -42 -83 -64 -130 -22 -47 -74 -133 -116 -192 -85 -120 -138 -228 -156
-315 -7 -32 -20 -94 -30 -138 -22 -97 -37 -177 -56 -304 -27 -181 -79 -298
-167 -376 -136 -121 -299 -365 -337 -505 -17 -64 -65 -155 -97 -185 -15 -14
-59 -41 -98 -61 -38 -20 -126 -67 -195 -105 -106 -58 -395 -179 -427 -179 -19
0 -125 -105 -179 -176 -101 -134 -178 -185 -256 -170 -77 16 -119 83 -126 203
-7 126 23 244 109 437 27 60 48 111 45 113 -2 2 -37 -4 -77 -13 -97 -22 -250
-14 -429 22 -130 26 -140 26 -265 15 -71 -6 -184 -23 -250 -37 -88 -18 -173
-27 -320 -34 -171 -8 -362 -28 -415 -45 -63 -20 -449 -65 -556 -65 -112 0
-131 -3 -204 -29 -51 -19 -134 -65 -232 -129 -204 -132 -235 -143 -396 -140
l-125 3 -26 -50 c-22 -42 -26 -63 -26 -138 l0 -88 -41 -37 c-22 -20 -51 -46
-65 -58 -15 -12 -44 -64 -68 -122 -60 -142 -108 -178 -181 -135 -36 21 -50 52
-50 108 0 24 -6 70 -14 102 -8 32 -17 74 -20 95 -5 27 -13 39 -34 47 -66 25
-102 83 -110 178 -3 45 -9 63 -19 63 -8 0 -46 14 -86 31 -61 26 -80 30 -121
24 -27 -3 -61 -12 -76 -20 -40 -20 -171 -43 -293 -50 -103 -7 -109 -8 -148
-41 -56 -47 -104 -48 -181 -7 -45 25 -53 26 -149 19 -87 -5 -107 -4 -144 13
-36 16 -46 26 -55 59 -16 51 4 92 63 129 37 23 95 68 265 206 54 43 86 54 194
67 116 14 148 31 187 98 9 16 57 80 108 143 102 127 133 149 215 149 43 0 61
6 119 45 37 24 92 57 123 72 l55 26 3 211 c3 238 2 233 93 354 34 44 57 93 85
173 21 60 53 136 72 167 19 31 63 115 97 185 35 71 83 153 107 182 44 55 62
103 84 226 13 76 37 120 77 146 53 35 87 84 99 142 19 94 73 267 97 308 12 21
49 74 82 116 84 109 101 140 130 235 15 47 52 127 86 185 33 56 98 179 144
272 74 151 116 223 192 329 12 17 29 65 38 106 29 126 55 221 70 250 8 15 47
60 86 100 54 55 81 92 110 154 44 94 62 114 145 155 67 33 106 76 172 185 38
62 59 111 115 266 26 71 72 118 197 198 113 72 194 146 255 232 17 23 68 77
115 119 124 111 160 150 160 172 0 46 29 89 72 109 24 11 54 20 67 20 32 0 80
38 116 91 39 57 86 96 118 98 5 1 24 -6 42 -15z"/>
<path d="M19860 5955 c0 -9 -25 -65 -56 -126 -30 -61 -66 -150 -78 -197 -45
-167 -87 -295 -115 -351 -16 -31 -57 -139 -91 -241 -34 -102 -82 -224 -106
-273 -27 -54 -44 -101 -44 -123 0 -51 -29 -171 -56 -233 -14 -30 -31 -81 -40
-115 -9 -33 -28 -79 -43 -102 -39 -57 -67 -132 -54 -145 6 -6 39 -11 74 -12
54 -1 71 3 105 25 80 52 148 46 225 -17 49 -42 89 -54 202 -62 l87 -6 0 997
c0 548 -2 996 -5 996 -3 0 -5 -7 -5 -15z"/>
<path d="M18503 5194 c-152 -153 -252 -288 -388 -524 -131 -226 -189 -304
-364 -490 l-90 -95 77 -3 c50 -2 102 3 147 15 47 12 104 17 175 16 l106 -1 22
65 c13 36 28 70 33 77 24 28 94 144 120 200 16 34 45 124 64 201 20 77 49 169
66 204 16 36 34 94 39 130 12 89 33 144 75 203 33 46 69 127 60 136 -2 3 -66
-58 -142 -134z"/>
</g>
</svg>
