<?xml version="1.0" standalone="no"?>
<!DOCTYPE svg PUBLIC "-//W3C//DTD SVG 20010904//EN"
 "http://www.w3.org/TR/2001/REC-SVG-20010904/DTD/svg10.dtd">
<svg version="1.0" xmlns="http://www.w3.org/2000/svg"
 width="1987.000000pt" height="815.000000pt" viewBox="0 0 1987.000000 815.000000"
 preserveAspectRatio="xMidYMid meet">

<g transform="translate(0.000000,815.000000) scale(0.100000,-0.100000)"
fill="#ffffff" stroke="none">
<path d="M12724 7931 c-17 -10 -44 -39 -60 -65 -20 -31 -40 -49 -64 -57 -72
-25 -100 -63 -100 -138 0 -14 -20 -47 -50 -81 -46 -53 -79 -106 -135 -220 -13
-25 -41 -60 -64 -78 -23 -18 -50 -50 -61 -72 -12 -23 -41 -54 -75 -77 -199
-136 -218 -161 -240 -305 -7 -48 -21 -113 -30 -145 -24 -81 -121 -271 -165
-321 -44 -49 -78 -135 -84 -212 -2 -30 7 -163 20 -294 27 -271 24 -341 -21
-462 -68 -180 -97 -295 -120 -484 -9 -69 -18 -132 -20 -140 -2 -8 -9 -62 -15
-120 -14 -135 -46 -334 -70 -430 -24 -97 -31 -187 -35 -455 -2 -198 -5 -230
-28 -322 -15 -56 -38 -130 -52 -165 -82 -202 -99 -403 -51 -601 26 -107 27
-107 15 -299 -6 -106 -14 -254 -19 -328 -5 -94 -14 -154 -29 -198 -11 -35 -21
-77 -21 -92 0 -16 18 -96 40 -179 22 -82 40 -163 40 -180 0 -35 43 -91 71 -91
17 0 19 -5 14 -37 -4 -21 -10 -49 -15 -63 -16 -45 -58 -214 -64 -257 -3 -24
-17 -67 -30 -95 -13 -29 -32 -77 -41 -106 -9 -28 -32 -70 -50 -92 -64 -77 -80
-124 -80 -235 0 -99 27 -278 49 -324 6 -13 25 -30 42 -39 62 -29 118 8 151
100 17 50 46 85 113 139 28 21 33 33 37 80 5 47 10 58 44 89 36 32 82 94 235
318 32 45 60 82 64 82 14 0 101 83 115 110 8 16 53 54 102 87 49 32 120 83
158 114 39 30 97 73 130 94 82 52 170 129 206 181 16 23 43 82 60 131 54 151
136 299 218 389 16 17 41 49 55 71 15 23 54 63 87 89 126 101 153 155 268 539
16 53 32 82 67 120 80 87 139 160 164 201 13 21 35 50 48 64 32 34 103 135
138 195 16 28 61 84 100 125 78 82 141 176 173 258 12 30 40 81 62 114 23 33
61 105 86 161 70 160 100 218 126 246 35 37 184 245 203 283 9 18 38 56 63 83
57 61 149 184 192 257 17 29 62 96 99 148 88 122 146 221 166 285 24 73 59
129 143 230 41 50 77 92 81 95 28 23 52 76 53 117 0 40 -4 50 -32 75 -17 15
-38 28 -46 28 -23 0 -18 11 31 65 188 207 302 413 399 715 20 63 56 169 80
235 23 66 73 219 110 340 101 328 112 361 162 468 35 77 44 106 40 132 -10 64
-67 96 -131 75 -43 -14 -194 -170 -309 -319 -189 -244 -341 -381 -530 -475
-110 -55 -165 -99 -199 -158 -24 -41 -32 -66 -58 -182 -25 -110 -158 -302
-361 -521 -41 -44 -94 -102 -118 -130 -24 -27 -65 -72 -90 -100 -243 -264
-448 -530 -526 -685 -15 -30 -55 -85 -90 -121 -114 -121 -213 -256 -377 -514
-126 -198 -240 -342 -334 -420 -208 -174 -282 -260 -422 -490 -68 -111 -111
-196 -151 -302 -18 -45 -38 -87 -46 -93 -8 -7 -15 -11 -15 -9 0 2 21 54 47
114 93 221 173 493 173 587 0 32 12 77 36 135 51 122 79 243 104 439 30 238
36 264 63 283 133 92 246 383 247 636 0 50 0 99 0 110 -1 10 15 49 34 86 45
85 92 255 106 379 13 117 34 235 65 360 51 207 52 290 5 505 -19 86 -21 116
-14 215 18 280 5 396 -55 505 -28 50 -51 149 -51 219 0 79 -85 121 -156 77z"/>
<path d="M7379 7912 c-29 -13 -64 -47 -94 -91 -36 -53 -84 -91 -116 -91 -13 0
-43 -9 -67 -20 -43 -20 -72 -63 -72 -109 0 -22 -36 -61 -160 -172 -47 -42 -98
-96 -115 -119 -61 -86 -142 -160 -255 -232 -125 -80 -171 -127 -197 -198 -56
-155 -77 -204 -115 -266 -59 -99 -112 -160 -156 -177 -79 -32 -118 -71 -160
-160 -30 -65 -56 -101 -111 -157 -39 -40 -78 -85 -86 -100 -15 -29 -41 -124
-70 -250 -9 -41 -26 -89 -38 -106 -76 -106 -118 -178 -192 -329 -46 -93 -111
-216 -144 -272 -33 -57 -70 -135 -82 -175 -30 -100 -51 -140 -128 -238 -36
-46 -76 -102 -88 -123 -24 -41 -78 -214 -97 -308 -12 -58 -46 -107 -99 -142
-40 -26 -64 -70 -77 -146 -22 -122 -40 -171 -83 -224 -23 -29 -71 -110 -106
-182 -36 -71 -80 -156 -99 -187 -19 -31 -51 -107 -72 -167 -28 -80 -51 -129
-85 -173 -91 -121 -90 -116 -93 -354 l-3 -211 -55 -26 c-31 -15 -86 -48 -123
-72 -58 -39 -76 -45 -119 -45 -82 0 -113 -22 -215 -149 -51 -63 -99 -127 -108
-143 -39 -67 -71 -84 -187 -98 -108 -13 -140 -24 -194 -67 -170 -138 -228
-183 -265 -206 -59 -37 -79 -78 -63 -129 9 -33 19 -43 55 -59 37 -17 57 -18
144 -13 97 7 103 6 151 -20 63 -34 122 -37 159 -7 58 47 66 49 208 60 105 8
163 17 219 36 121 41 148 41 231 6 40 -17 78 -31 86 -31 10 0 16 -18 19 -63 8
-95 44 -153 110 -178 21 -8 29 -20 34 -47 3 -21 12 -63 20 -95 8 -32 14 -78
14 -102 0 -56 14 -87 50 -108 73 -43 121 -7 181 135 25 59 53 110 68 122 14
12 46 40 70 63 l44 43 -7 77 c-6 72 -4 82 22 133 l28 55 124 -3 c165 -4 215
13 385 132 104 72 178 113 253 140 64 23 89 26 196 26 107 0 493 45 556 65 53
17 244 37 415 45 147 7 232 16 320 34 66 14 179 31 250 37 125 11 135 11 265
-15 180 -36 321 -44 424 -22 44 9 81 15 83 13 2 -2 -19 -53 -46 -113 -86 -193
-116 -311 -109 -437 7 -120 49 -187 126 -203 78 -15 155 36 256 170 54 71 160
176 179 176 32 0 321 121 427 179 69 38 153 83 187 100 34 17 78 45 98 63 40
34 86 118 105 188 38 140 201 384 337 505 88 78 140 195 167 376 19 127 34
207 56 304 10 44 23 106 30 138 18 87 71 195 156 315 42 59 94 145 116 192 22
47 51 105 64 130 43 78 71 141 130 285 84 208 244 554 280 605 49 71 141 289
202 480 50 159 128 332 194 435 29 44 55 82 59 85 15 13 119 162 150 215 83
143 132 296 149 462 7 59 18 140 26 178 16 80 49 308 59 405 15 149 47 323 70
388 40 112 32 162 -32 188 -81 35 -147 -27 -380 -356 -168 -237 -227 -294
-390 -374 -160 -79 -203 -145 -203 -310 0 -57 -6 -93 -19 -122 -29 -64 -229
-358 -304 -446 -71 -84 -246 -322 -315 -427 -75 -116 -134 -227 -168 -318 -14
-37 -38 -81 -53 -98 -75 -82 -158 -216 -236 -380 -157 -332 -219 -427 -356
-540 -77 -65 -237 -302 -272 -405 -9 -25 -32 -86 -51 -137 -20 -51 -36 -108
-36 -126 0 -20 -9 -46 -22 -63 -13 -15 -33 -48 -45 -74 -13 -25 -43 -74 -68
-110 -75 -106 -129 -216 -180 -364 -26 -77 -72 -194 -102 -260 -30 -67 -60
-133 -66 -148 -14 -33 -16 -34 -64 -8 -54 29 -128 26 -200 -6 -54 -24 -65 -26
-163 -21 -58 3 -146 15 -197 26 -96 22 -364 69 -542 95 -121 18 -224 20 -303
6 -40 -8 -70 -7 -104 1 -68 16 -296 13 -444 -5 -156 -20 -270 -20 -340 -1 -30
8 -102 20 -160 26 -88 10 -122 9 -210 -4 -58 -8 -106 -14 -108 -12 -2 1 17 43
42 92 46 92 89 153 109 153 21 0 108 63 121 89 8 14 17 50 21 78 8 61 35 98
212 298 62 69 133 161 159 203 25 42 56 88 68 102 25 27 77 116 152 255 26 49
66 110 89 135 82 90 148 222 161 320 4 30 17 73 30 95 41 74 74 165 94 260 10
52 32 123 49 157 66 139 89 198 101 251 6 32 17 63 24 69 6 7 53 76 104 152
93 139 137 223 184 346 14 36 40 103 58 150 17 47 45 112 60 145 42 92 118
288 135 353 9 31 20 126 25 211 11 177 27 267 79 441 79 261 97 346 112 522
14 169 8 197 -46 222 -36 17 -42 18 -66 8z"/>
<path d="M2850 7818 c-122 -11 -237 -34 -264 -52 -37 -24 -46 -81 -22 -136 5
-12 -10 -19 -76 -34 -87 -19 -295 -95 -400 -146 -68 -33 -83 -36 -75 -17 8 21
-19 74 -48 93 -34 22 -84 20 -134 -6 -33 -16 -59 -20 -141 -20 -110 0 -137 -9
-196 -62 -18 -16 -61 -49 -95 -71 -52 -35 -68 -53 -95 -107 -37 -73 -105 -156
-140 -172 -13 -6 -26 -19 -30 -30 -3 -10 -28 -44 -55 -75 -27 -31 -49 -60 -49
-64 0 -4 -27 -33 -60 -65 -33 -32 -71 -81 -85 -108 -15 -32 -48 -72 -86 -106
-50 -44 -69 -70 -101 -140 -21 -47 -58 -110 -82 -140 -97 -125 -216 -320 -240
-395 -22 -70 -52 -115 -75 -115 -12 0 -29 -17 -47 -47 -15 -27 -52 -82 -83
-123 -30 -41 -81 -113 -113 -159 l-58 -85 0 -2127 0 -2128 52 -10 c29 -5 121
-12 203 -15 102 -4 166 -11 199 -22 58 -20 131 -15 226 14 36 12 117 28 180
37 119 16 462 95 496 113 10 6 48 23 84 38 152 63 271 129 395 220 39 27 99
67 135 89 146 87 259 192 432 400 18 22 50 58 71 80 21 22 44 54 52 72 7 17
32 55 55 84 23 29 50 69 61 90 10 21 99 118 196 217 204 206 335 353 431 485
13 17 62 74 110 126 48 52 94 104 102 117 78 114 100 149 135 216 42 79 105
159 289 362 173 192 173 193 356 661 45 116 106 256 136 313 63 121 69 161 27
204 -29 31 -77 37 -116 16 -26 -13 -209 -198 -286 -287 -93 -109 -288 -222
-414 -241 -104 -15 -276 -72 -355 -117 -69 -38 -112 -78 -233 -213 -52 -58
-98 -98 -143 -124 -44 -25 -66 -45 -66 -57 0 -12 -15 -26 -39 -38 -21 -11 -55
-37 -75 -58 -38 -41 -124 -180 -183 -297 -65 -129 -104 -179 -243 -316 -75
-74 -159 -162 -186 -195 -93 -113 -366 -391 -505 -515 -34 -30 -84 -83 -111
-117 -60 -73 -118 -103 -260 -133 -106 -23 -126 -35 -189 -116 -25 -32 -69
-75 -98 -95 -44 -30 -67 -38 -141 -49 -116 -17 -150 -11 -268 43 -13 6 -30 27
-38 46 -8 19 -30 53 -49 76 -43 53 -57 141 -31 205 9 22 19 65 22 95 4 30 9
55 11 55 3 0 16 -9 30 -20 15 -12 41 -20 63 -20 58 0 95 47 110 142 15 95 10
84 82 189 94 137 128 205 128 261 0 55 36 249 48 257 4 3 16 25 27 49 15 36
19 69 19 182 1 97 5 143 14 152 6 6 12 30 12 53 0 22 9 60 20 84 11 24 20 49
20 55 0 7 11 35 25 62 14 27 25 55 25 62 0 36 101 321 128 362 9 14 24 47 34
73 9 27 43 79 79 120 70 80 78 97 109 217 12 47 30 101 40 120 10 19 21 46 25
60 4 14 20 52 35 86 16 33 32 76 38 95 19 71 97 246 129 293 18 26 33 58 33
71 0 24 21 44 157 151 63 50 89 64 115 64 18 0 49 10 68 24 23 15 58 26 100
30 89 10 124 27 155 75 14 23 31 41 39 41 26 0 63 50 79 110 13 44 24 63 40
71 12 6 35 32 50 59 32 56 88 106 129 115 23 6 28 12 28 38 1 75 100 116 300
124 154 7 222 -5 268 -48 52 -49 44 -109 -28 -200 -22 -28 -40 -57 -40 -64 0
-8 -8 -20 -19 -27 -10 -7 -22 -24 -26 -38 -4 -14 -22 -54 -40 -90 -57 -114
-101 -268 -130 -450 -16 -106 -47 -220 -90 -340 -13 -36 -26 -81 -30 -100 -3
-19 -14 -57 -25 -85 -11 -27 -49 -133 -86 -235 -83 -232 -97 -262 -151 -332
-33 -43 -43 -65 -43 -93 0 -50 44 -95 93 -95 33 0 116 31 144 54 36 29 273
266 307 306 67 80 329 321 403 371 39 27 113 68 165 93 69 33 106 57 141 95
63 67 84 117 102 243 20 137 35 189 78 274 21 39 37 75 37 80 0 5 20 36 45 69
27 36 45 71 45 87 0 15 4 29 9 32 18 12 82 178 111 291 24 96 30 139 30 226 0
111 -17 225 -44 294 -8 22 -20 60 -26 83 -15 58 -149 261 -224 340 -32 34 -84
81 -113 104 -30 23 -69 62 -86 87 -92 134 -192 200 -372 246 -33 9 -87 28
-121 44 -125 59 -197 67 -394 49z"/>
<path d="M19779 7391 c-36 -14 -72 -30 -81 -36 -30 -19 -67 -87 -78 -143 -20
-95 -41 -123 -123 -160 -40 -17 -87 -35 -104 -38 -18 -4 -38 -13 -44 -20 -6
-8 -16 -14 -22 -14 -6 0 -27 -11 -46 -24 -28 -18 -240 -145 -361 -216 -64 -38
-228 -104 -299 -121 -206 -49 -291 -122 -330 -279 -6 -25 -30 -82 -54 -128
-38 -75 -60 -100 -227 -265 -102 -100 -194 -189 -204 -197 -18 -14 -18 -13
-12 7 4 14 1 36 -9 56 -38 82 -135 73 -231 -20 -47 -46 -117 -94 -188 -129
-72 -37 -206 -119 -236 -146 -14 -13 -57 -63 -95 -113 -38 -49 -115 -138 -171
-197 -96 -100 -106 -116 -188 -275 -67 -132 -100 -184 -153 -243 -63 -71 -176
-218 -343 -450 -76 -106 -167 -213 -204 -240 -14 -10 -59 -17 -136 -22 -80 -4
-151 -16 -235 -38 -66 -18 -177 -42 -246 -55 -132 -24 -161 -36 -314 -124 -49
-28 -115 -59 -145 -67 -73 -21 -197 -86 -247 -129 -87 -74 -98 -183 -25 -242
19 -16 142 -17 194 -3 41 12 107 0 130 -24 8 -7 31 -24 53 -38 38 -23 59 -33
129 -58 l28 -10 -123 -123 c-126 -124 -157 -161 -336 -392 -55 -71 -151 -188
-213 -260 -205 -239 -236 -287 -347 -554 -89 -212 -110 -249 -238 -420 -56
-75 -127 -176 -158 -226 -56 -89 -117 -235 -117 -279 0 -15 -14 -33 -45 -55
-58 -42 -70 -59 -171 -257 -99 -194 -105 -221 -56 -265 19 -17 44 -29 60 -29
31 0 146 68 168 99 9 12 42 29 83 41 73 21 92 36 114 89 9 21 41 55 83 87 l68
53 25 -25 c51 -51 115 -41 199 30 54 46 61 50 126 61 115 19 167 45 246 120
42 40 102 87 133 105 52 29 92 66 129 119 12 16 54 33 174 67 224 64 226 65
393 279 87 111 146 170 270 265 46 36 100 79 120 96 20 17 46 34 58 38 38 12
106 53 151 91 66 57 122 138 201 290 59 112 88 155 145 215 39 41 86 98 105
125 18 28 42 59 53 70 11 11 40 52 65 90 26 39 74 106 107 150 33 44 65 86 71
94 28 38 115 121 127 121 34 0 188 21 233 31 28 7 97 26 155 44 58 18 139 36
180 40 41 4 102 16 135 26 33 10 85 19 116 19 35 0 74 8 104 21 29 13 56 18
72 14 22 -5 24 -9 18 -38 -13 -60 -56 -155 -101 -222 -24 -38 -44 -72 -44 -77
0 -5 -36 -63 -79 -129 -87 -131 -125 -213 -169 -364 -20 -69 -60 -161 -132
-300 -57 -110 -136 -264 -176 -342 -39 -79 -111 -201 -158 -273 -47 -72 -94
-147 -105 -168 -24 -48 -137 -440 -178 -618 -6 -26 21 -80 46 -94 11 -5 35
-10 53 -10 57 1 66 12 177 225 14 28 55 79 91 115 92 91 121 134 131 186 6 32
34 84 91 170 46 68 87 124 91 124 5 0 -10 -33 -32 -74 -59 -105 -54 -163 15
-192 32 -13 39 -13 77 5 40 18 117 84 147 126 30 40 153 145 197 166 60 29
111 84 124 133 14 52 75 173 104 206 21 23 81 111 147 213 48 75 118 205 133
246 7 22 31 69 53 105 21 35 61 121 87 190 40 104 51 126 68 126 12 0 35 10
52 21 31 22 120 133 132 166 3 10 15 29 26 43 10 14 25 39 32 55 7 17 33 56
57 86 64 78 70 93 79 185 4 44 15 106 25 137 17 56 18 57 73 73 62 18 143 21
271 10 100 -9 191 8 279 53 31 16 120 60 198 97 l142 69 1 126 0 126 -87 6
c-113 8 -153 20 -202 62 -77 63 -145 69 -225 17 -34 -22 -51 -26 -105 -25 -35
1 -68 6 -74 12 -11 11 15 93 38 121 22 26 52 93 64 144 7 27 21 66 32 87 24
47 59 190 59 242 0 24 15 68 44 125 24 48 72 170 106 272 34 102 75 210 91
241 28 56 70 184 114 349 13 47 51 141 84 209 l61 124 0 728 c0 577 -3 729
-12 728 -7 -1 -43 -13 -79 -28z m-1144 -2109 c-8 -23 -31 -64 -50 -90 -42 -59
-63 -114 -75 -203 -5 -36 -23 -94 -39 -130 -17 -35 -46 -127 -66 -204 -19 -77
-48 -167 -64 -201 -26 -56 -96 -172 -120 -200 -5 -7 -20 -41 -32 -77 l-23 -65
-111 1 c-73 0 -131 -5 -171 -16 -62 -17 -214 -24 -214 -9 0 4 39 48 85 97 171
180 230 260 360 485 136 236 236 371 388 524 76 76 140 137 142 134 2 -2 -2
-23 -10 -46z"/>
</g>
</svg>
