<?xml version="1.0" standalone="no"?>
<!DOCTYPE svg PUBLIC "-//W3C//DTD SVG 20010904//EN"
 "http://www.w3.org/TR/2001/REC-SVG-20010904/DTD/svg10.dtd">
<svg version="1.0" xmlns="http://www.w3.org/2000/svg"
 width="38.000000pt" height="48.000000pt" viewBox="0 0 48.000000 48.000000"
 preserveAspectRatio="xMidYMid meet">

<g transform="translate(0.000000,48.000000) scale(0.100000,-0.100000)"
fill="#ffffff" stroke="none">
<path d="M12 468 c-17 -17 -17 -439 0 -456 8 -8 49 -12 120 -12 l108 0 0 100
0 100 -30 0 c-27 0 -30 3 -30 30 0 27 3 30 30 30 29 0 30 1 30 50 0 68 22 90
90 90 49 0 50 -1 50 -30 0 -22 -5 -30 -18 -30 -26 0 -42 -20 -42 -52 0 -26 3
-28 41 -28 38 0 41 -2 35 -22 -3 -13 -6 -26 -6 -30 0 -5 -16 -8 -35 -8 l-35 0
0 -100 0 -100 68 0 c40 0 73 5 80 12 17 17 17 439 0 456 -17 17 -439 17 -456
0z"/>
</g>
</svg>
