<?xml version="1.0" standalone="no"?>
<!DOCTYPE svg PUBLIC "-//W3C//DTD SVG 20010904//EN"
 "http://www.w3.org/TR/2001/REC-SVG-20010904/DTD/svg10.dtd">
<svg version="1.0" xmlns="http://www.w3.org/2000/svg"
 width="100.000000pt" height="100.000000pt" viewBox="0 0 100.000000 100.000000"
 preserveAspectRatio="xMidYMid meet">

<g transform="translate(0.000000,100.000000) scale(0.100000,-0.100000)"
fill="#ffffff" stroke="none">
<path d="M250 931 c-70 -22 -131 -74 -166 -141 -17 -31 -19 -61 -19 -290 0
-229 2 -259 19 -290 26 -49 74 -98 121 -123 38 -21 53 -22 295 -22 229 0 259
2 290 19 49 26 98 74 123 121 21 38 22 53 22 295 0 242 -1 257 -22 295 -25 47
-74 95 -123 121 -31 17 -62 19 -275 21 -132 1 -251 -2 -265 -6z m531 -59 c39
-20 62 -41 84 -77 l30 -48 0 -247 0 -247 -30 -48 c-22 -36 -45 -57 -84 -77
l-53 -28 -228 0 -228 0 -53 28 c-39 20 -62 41 -84 77 l-30 48 0 247 0 247 30
48 c22 36 45 57 84 77 l53 28 228 0 228 0 53 -28z"/>
<path d="M710 765 c-26 -32 13 -81 48 -59 34 22 22 74 -18 74 -10 0 -23 -7
-30 -15z"/>
<path d="M399 692 c-163 -85 -154 -316 16 -393 174 -80 366 113 286 286 -55
121 -187 167 -302 107z m181 -34 c132 -67 132 -249 0 -316 -56 -28 -104 -28
-160 1 -132 66 -132 248 0 315 24 12 60 22 80 22 20 0 56 -10 80 -22z"/>
</g>
</svg>
