<?xml version="1.0" standalone="no"?>
<!DOCTYPE svg PUBLIC "-//W3C//DTD SVG 20010904//EN"
 "http://www.w3.org/TR/2001/REC-SVG-20010904/DTD/svg10.dtd">
<svg version="1.0" xmlns="http://www.w3.org/2000/svg"
 width="100.000000pt" height="100.000000pt" viewBox="0 0 100.000000 100.000000"
 preserveAspectRatio="xMidYMid meet">

<g transform="translate(0.000000,100.000000) scale(0.100000,-0.100000)"
fill="#ffffff" stroke="none">
<path d="M255 809 c-144 -15 -170 -37 -186 -160 -14 -100 -6 -307 13 -364 28
-83 96 -100 408 -100 311 0 381 17 408 100 31 96 23 385 -13 455 -8 15 -29 34
-47 43 -69 32 -386 47 -583 26z m297 -267 c38 -20 68 -39 68 -42 0 -3 -30 -22
-68 -42 -37 -21 -91 -51 -119 -68 l-53 -30 0 140 0 140 53 -30 c28 -17 82 -47
119 -68z"/>
</g>
</svg>
