<?xml version="1.0" standalone="no"?>
<!DOCTYPE svg PUBLIC "-//W3C//DTD SVG 20010904//EN"
 "http://www.w3.org/TR/2001/REC-SVG-20010904/DTD/svg10.dtd">
<svg version="1.0" xmlns="http://www.w3.org/2000/svg"
 width="100.000000pt" height="100.000000pt" viewBox="0 0 512.000000 512.000000"
 preserveAspectRatio="xMidYMid meet">

<g transform="translate(0.000000,512.000000) scale(0.100000,-0.100000)"
fill="#fff" stroke="none">
<path d="M2373 5019 c-51 -25 -61 -39 -137 -208 l-61 -135 -93 -21 -92 -22
-117 99 c-180 152 -191 154 -368 71 -216 -101 -217 -103 -214 -341 l2 -167
-74 -57 -74 -57 -154 39 c-175 46 -176 46 -231 24 -32 -13 -61 -42 -135 -135
-100 -126 -120 -169 -106 -229 4 -20 39 -95 77 -167 l69 -130 -40 -89 -41 -88
-155 -31 c-171 -34 -217 -55 -243 -109 -8 -18 -29 -93 -45 -167 -45 -200 -41
-209 142 -346 l127 -95 0 -98 0 -98 -127 -95 c-71 -53 -134 -106 -142 -119
-31 -50 -31 -88 -1 -224 34 -152 41 -171 69 -201 35 -37 69 -49 225 -79 l150
-29 38 -81 c21 -45 38 -87 38 -94 0 -7 -32 -73 -71 -147 -60 -113 -71 -143
-71 -182 0 -61 6 -72 113 -207 69 -87 98 -116 129 -128 54 -21 53 -22 230 24
l155 39 74 -57 74 -57 -2 -167 c-3 -238 -2 -240 214 -341 177 -83 188 -81 368
71 l117 99 92 -22 93 -21 61 -135 c76 -169 86 -183 138 -209 37 -17 62 -20
184 -20 159 0 208 12 243 61 11 15 48 90 82 165 l62 137 93 22 92 22 128 -107
c128 -106 151 -120 206 -120 34 0 255 99 305 137 55 42 62 74 60 260 l-2 165
44 35 c24 20 58 46 74 59 l31 23 154 -39 c85 -22 164 -40 174 -40 51 0 104 41
188 148 104 131 108 138 108 202 0 45 -10 70 -70 184 -38 73 -70 139 -70 147
0 9 17 51 39 95 l38 79 150 28 c166 32 217 54 244 107 30 58 79 299 70 340
-13 58 -31 77 -163 177 l-128 95 0 98 0 98 128 95 c70 53 133 106 141 119 31
50 31 88 1 224 -33 149 -37 159 -63 195 -28 39 -74 56 -237 88 l-145 28 -40
87 -40 88 71 136 c40 76 74 152 78 170 9 53 -15 103 -109 221 -87 110 -140
151 -191 151 -10 0 -89 -18 -174 -40 l-154 -39 -31 23 c-16 13 -50 39 -74 59
l-44 35 2 165 c2 186 -5 218 -60 260 -50 38 -271 137 -305 137 -55 0 -78 -14
-206 -120 l-128 -107 -92 22 -93 22 -62 137 c-34 75 -71 150 -82 165 -35 49
-84 61 -244 61 -123 0 -147 -3 -184 -21z m372 -301 c37 -84 75 -161 84 -170
19 -21 314 -92 345 -84 12 3 80 55 151 116 72 60 135 110 140 109 6 0 53 -22
105 -47 l95 -47 -4 -171 c-2 -93 0 -180 3 -192 10 -31 253 -222 283 -222 13 0
95 18 183 40 88 22 161 40 164 40 2 0 36 -40 76 -89 l71 -90 -81 -154 c-44
-84 -80 -163 -80 -175 0 -11 31 -86 69 -166 52 -110 76 -148 93 -155 13 -5 96
-23 184 -41 87 -18 160 -33 162 -35 3 -3 52 -211 52 -220 0 -1 -63 -51 -141
-110 -80 -61 -144 -118 -150 -132 -12 -32 -12 -294 1 -327 5 -14 67 -69 150
-131 77 -58 140 -107 140 -109 0 -9 -49 -218 -52 -221 -2 -2 -75 -17 -162 -35
-88 -18 -171 -36 -184 -41 -17 -7 -41 -45 -93 -155 -38 -80 -69 -155 -69 -166
0 -12 36 -90 81 -175 l80 -154 -71 -89 c-40 -50 -74 -90 -76 -90 -3 0 -76 18
-164 40 -88 22 -170 40 -183 40 -34 0 -275 -193 -284 -228 -3 -14 -3 -100 0
-191 l7 -166 -105 -49 -105 -49 -67 56 c-38 31 -97 81 -133 111 -36 31 -74 59
-86 62 -31 8 -326 -63 -345 -84 -9 -9 -47 -86 -85 -169 l-67 -153 -117 0 -117
0 -68 152 c-37 84 -75 161 -84 171 -20 20 -313 91 -345 83 -11 -3 -79 -55
-151 -116 -71 -60 -134 -110 -140 -109 -5 0 -53 22 -105 48 l-95 47 4 170 c2
94 0 180 -3 192 -10 31 -253 222 -283 222 -13 0 -95 -18 -183 -40 -88 -22
-161 -40 -164 -40 -2 0 -36 40 -76 90 l-71 89 80 154 c45 85 81 163 81 175 0
11 -31 86 -69 166 -53 111 -76 148 -94 155 -13 5 -96 24 -185 41 l-161 33 -25
110 c-15 61 -24 113 -20 116 3 3 65 51 137 106 72 55 137 111 144 125 17 34
17 306 0 340 -7 14 -70 69 -141 122 -71 53 -133 101 -138 106 -7 7 33 217 44
227 2 2 75 17 162 35 88 18 171 36 184 41 17 7 41 45 93 155 38 80 69 155 69
166 0 12 -36 90 -81 175 l-80 154 71 89 c40 50 75 90 79 90 4 0 76 -18 161
-40 85 -22 167 -40 181 -40 36 0 276 192 286 228 3 14 3 100 0 191 l-7 166
105 49 c95 44 107 47 123 34 130 -112 266 -218 280 -218 45 0 318 72 333 88 9
9 47 86 85 170 l67 152 117 0 117 0 68 -152z"/>
<path d="M2395 4369 c-791 -74 -1446 -657 -1611 -1434 -172 -814 234 -1648
980 -2010 241 -117 462 -172 726 -182 320 -11 600 47 876 182 200 99 349 209
519 387 231 241 390 546 462 887 24 114 27 147 27 346 1 237 -6 294 -55 483
-120 458 -422 855 -837 1099 -325 192 -710 277 -1087 242z m408 -176 l27 -8
-252 -438 c-139 -240 -255 -437 -258 -437 -3 1 -90 148 -193 328 -103 180
-201 350 -217 378 l-30 51 92 35 c216 82 378 109 623 103 99 -2 192 -7 208
-12z m290 -72 c99 -34 271 -113 281 -129 5 -9 -358 -655 -433 -771 -8 -12 -19
-10 -68 11 -91 41 -171 61 -269 67 l-91 6 213 370 c118 204 228 394 244 423
17 28 32 52 33 52 2 0 42 -13 90 -29z m-1148 -496 c114 -198 216 -374 226
-391 l19 -31 -49 -31 c-63 -41 -179 -164 -217 -231 l-31 -53 -238 412 c-130
227 -239 420 -242 429 -3 12 18 37 69 80 69 59 248 185 253 179 2 -2 96 -165
210 -363z m1693 182 c159 -132 313 -333 411 -537 28 -58 51 -111 51 -117 0
-10 -108 -13 -506 -13 -278 0 -504 4 -502 8 2 5 100 175 218 380 183 317 216
369 230 359 8 -6 52 -42 98 -80z m-2099 -637 l252 -435 -432 -3 c-238 -1 -434
0 -437 2 -7 8 27 190 54 283 53 184 144 370 252 515 31 42 57 76 58 75 1 -1
115 -198 253 -437z m1136 -45 c223 -47 403 -227 450 -450 27 -130 11 -247 -51
-375 -91 -185 -308 -320 -514 -320 -205 0 -424 136 -514 320 -39 80 -66 186
-66 260 0 144 67 299 175 406 143 142 330 199 520 159z m1489 -172 c15 -53 37
-201 43 -290 l6 -103 -456 0 -457 0 0 48 c0 72 -35 197 -79 285 l-39 77 488 0
c457 0 489 -1 494 -17z m-2344 -441 c0 -72 35 -197 79 -284 l39 -78 -488 0
c-457 0 -489 1 -494 18 -15 52 -37 200 -43 289 l-6 103 456 0 457 0 0 -48z
m2375 -169 c-41 -290 -167 -591 -332 -795 l-29 -36 -249 431 c-137 238 -250
435 -252 440 -2 4 192 7 433 7 l436 0 -7 -47z m-718 -541 l241 -417 -56 -52
c-59 -54 -180 -145 -242 -182 l-35 -20 -200 346 c-110 191 -212 368 -227 394
l-27 46 48 31 c63 41 181 166 217 230 16 28 31 49 34 46 3 -3 114 -193 247
-422z m-1447 175 c0 -4 -429 -749 -434 -754 -2 -2 -46 33 -98 76 -173 143
-326 341 -427 551 -28 58 -51 111 -51 118 0 9 108 12 505 12 278 0 505 -2 505
-3z m208 -86 c70 -36 177 -63 273 -69 l96 -7 -232 -403 c-129 -222 -239 -412
-247 -423 -13 -19 -14 -19 -101 10 -99 34 -271 113 -281 130 -7 11 432 781
446 781 5 0 25 -8 46 -19z m783 -459 l217 -377 -42 -18 c-121 -54 -287 -97
-456 -118 -98 -12 -371 -7 -423 8 l-27 8 252 438 c139 240 255 437 258 437 3
-1 102 -171 221 -378z"/>
<path d="M2445 2957 c-118 -40 -207 -117 -258 -225 -30 -62 -32 -75 -32 -172
0 -97 2 -110 32 -172 41 -88 113 -160 201 -201 62 -30 75 -32 172 -32 97 0
110 2 172 32 40 19 89 53 118 83 30 29 64 78 83 118 30 62 32 75 32 172 0 97
-2 110 -32 172 -41 88 -113 160 -201 201 -57 27 -80 32 -157 34 -55 2 -105 -2
-130 -10z m223 -176 c151 -77 184 -276 66 -395 -72 -71 -194 -93 -279 -49
-203 105 -184 379 32 459 47 18 131 11 181 -15z"/>
</g>
</svg>
