<?xml version="1.0" standalone="no"?>
<!DOCTYPE svg PUBLIC "-//W3C//DTD SVG 20010904//EN"
 "http://www.w3.org/TR/2001/REC-SVG-20010904/DTD/svg10.dtd">
<svg version="1.0" xmlns="http://www.w3.org/2000/svg"
 width="811.000000pt" height="890.000000pt" viewBox="0 0 811.000000 890.000000"
 preserveAspectRatio="xMidYMid meet">

<g transform="translate(0.000000,890.000000) scale(0.100000,-0.100000)"
fill="#ffffff" stroke="none">
<path d="M0 4450 l0 -4450 4055 0 4055 0 0 4450 0 4450 -4055 0 -4055 0 0
-4450z m4772 4276 c60 -29 68 -54 68 -229 l0 -155 29 -29 c30 -31 163 -73 227
-73 48 0 76 30 149 156 92 158 125 176 240 133 72 -27 113 -62 120 -103 4 -20
-4 -76 -20 -147 -40 -172 -40 -179 -13 -218 29 -43 177 -121 228 -121 32 0 46
11 150 120 115 119 116 120 161 120 36 0 59 -8 107 -39 116 -75 119 -108 32
-292 -82 -172 -81 -175 43 -283 54 -47 75 -59 110 -63 39 -5 50 0 170 81 163
109 181 112 264 34 57 -54 83 -98 83 -142 0 -16 -35 -71 -95 -152 -121 -161
-122 -168 -32 -286 93 -122 101 -123 279 -53 77 30 152 55 167 55 37 0 76 -32
117 -95 71 -111 61 -141 -87 -265 -60 -51 -114 -101 -119 -111 -19 -35 -10
-91 28 -173 43 -90 52 -100 107 -119 l39 -14 -45 -21 c-24 -11 -84 -26 -134
-33 -136 -18 -139 -31 -4 -26 130 6 171 19 230 72 46 42 67 43 163 13 59 -19
81 -33 129 -80 47 -47 57 -62 57 -91 0 -52 -28 -78 -157 -145 -66 -34 -127
-69 -135 -79 -34 -37 -40 -72 -23 -135 8 -33 15 -66 15 -75 0 -27 31 -81 56
-97 17 -12 66 -19 174 -25 106 -6 157 -13 174 -24 33 -22 54 -73 62 -148 7
-76 -9 -120 -54 -143 -27 -13 -176 -58 -240 -71 -19 -4 -49 -20 -67 -36 l-34
-30 -40 21 c-102 52 -247 64 -363 31 -37 -11 -104 -38 -149 -60 -45 -23 -83
-40 -84 -39 -1 2 -8 68 -14 148 -13 157 -50 376 -81 480 -37 124 -121 197
-240 207 -81 8 -131 -11 -313 -115 -83 -48 -246 -141 -361 -207 -197 -114
-228 -135 -259 -178 -12 -17 -17 -14 -72 41 -33 32 -73 68 -90 81 l-30 22 18
32 c20 33 34 149 24 189 -7 25 -81 68 -118 68 -19 0 -20 4 -14 38 4 20 15 46
26 58 23 24 24 34 4 34 -19 0 -27 33 -23 101 3 53 4 54 52 80 26 15 65 44 85
65 23 25 120 86 276 174 275 155 339 207 370 299 22 66 16 150 -13 208 -28 53
-184 200 -337 315 -244 184 -503 321 -795 419 -224 75 -302 71 -400 -17 -51
-46 -75 -91 -89 -169 -14 -76 -15 -836 -1 -887 14 -50 61 -92 134 -119 152
-55 305 -142 450 -257 90 -70 107 -77 177 -69 l48 6 11 -38 c5 -21 13 -59 16
-84 7 -47 -3 -65 -61 -107 -11 -8 -33 -30 -48 -49 -26 -32 -27 -37 -25 -131 3
-95 2 -99 -27 -141 -34 -49 -96 -89 -137 -89 -23 0 -35 12 -72 70 -130 201
-337 353 -581 426 -82 25 -105 28 -265 28 -201 1 -278 -14 -429 -85 -219 -102
-381 -260 -489 -475 -62 -125 -102 -295 -102 -437 l0 -79 -41 36 c-44 37 -145
75 -254 96 -33 6 -82 20 -110 30 -27 11 -62 22 -77 25 -33 6 -34 20 -13 140
17 94 8 140 -33 185 -24 25 -182 119 -638 378 l-131 75 1 117 1 116 -39 64
c-46 74 -49 106 -16 170 86 168 339 260 472 171 24 -15 66 -41 93 -56 28 -15
165 -94 305 -175 342 -197 333 -193 393 -187 29 2 59 13 75 25 182 145 315
226 472 287 52 21 106 47 118 59 53 48 53 43 52 524 0 502 -1 506 -73 588 -89
101 -185 112 -391 44 -321 -105 -603 -254 -866 -459 -126 -97 -268 -239 -296
-293 -31 -60 -32 -153 -4 -215 l19 -43 -22 -1 c-12 0 -33 -2 -47 -4 -14 -3
-42 -7 -63 -10 -68 -10 -120 -45 -233 -161 -169 -171 -207 -187 -266 -111 -18
23 -38 47 -44 54 -6 6 -23 55 -38 108 -38 133 -96 251 -154 311 -13 13 -18 30
-15 46 8 41 -18 82 -115 184 -52 54 -98 109 -104 123 -14 39 -2 83 39 137 49
65 71 82 113 90 31 6 52 -2 175 -66 176 -91 182 -91 282 11 110 113 110 127 8
294 -63 102 -75 129 -75 165 0 37 6 48 47 90 66 65 96 82 144 82 34 -1 51 -10
107 -56 37 -30 78 -65 92 -78 96 -89 129 -91 247 -12 122 81 125 95 58 294
-39 115 -44 139 -35 166 14 42 43 67 122 104 60 28 70 30 107 20 35 -9 51 -25
127 -126 48 -63 97 -122 108 -130 32 -22 77 -17 175 22 83 33 92 40 110 78 19
39 19 46 6 151 -22 172 -20 198 15 234 47 47 172 75 229 51 31 -12 80 -96 132
-224 32 -78 66 -106 131 -106 43 0 49 -2 38 -14 -18 -23 -87 -45 -180 -56
-128 -17 -128 -34 0 -27 135 8 189 25 247 77 43 40 47 42 95 38 48 -5 55 -10
122 -79 39 -41 88 -86 108 -102 30 -22 41 -41 58 -93 11 -36 20 -87 20 -112 0
-63 27 -166 62 -236 33 -66 50 -69 23 -4 -37 92 -40 454 -5 643 5 28 12 83 15
123 4 39 10 72 14 72 4 0 12 -26 19 -58 9 -42 20 -66 42 -87 27 -26 38 -29
127 -36 108 -8 148 2 177 42 8 13 34 79 57 148 31 97 48 133 72 155 29 28 33
28 107 23 43 -3 93 -12 112 -21z m-3935 -2065 c45 -13 87 -34 113 -56 23 -19
45 -35 49 -35 14 0 40 -67 39 -99 -1 -27 6 -41 31 -63 31 -27 38 -29 104 -27
63 3 78 0 119 -25 26 -15 68 -50 92 -77 51 -57 83 -71 136 -63 54 9 99 -9 147
-59 55 -55 63 -80 63 -190 l0 -92 -78 0 c-113 -1 -194 -48 -240 -140 -50 -102
-101 -412 -109 -672 -3 -106 -9 -193 -13 -193 -3 0 -51 32 -106 71 -161 115
-265 159 -376 159 -123 0 -303 -87 -460 -221 l-57 -49 -20 22 c-18 18 -21 35
-21 109 0 95 11 130 45 153 12 8 86 25 165 37 134 21 145 25 175 55 29 29 33
39 42 125 11 110 3 151 -35 177 -15 10 -81 40 -148 66 -127 49 -160 72 -170
123 -7 36 12 138 33 174 33 56 58 62 233 54 l159 -8 29 29 c30 31 82 167 82
216 0 54 -23 80 -141 159 -65 43 -124 88 -133 101 -24 34 -19 90 15 163 50
110 86 121 236 76z m4501 -1169 c71 -35 135 -101 173 -177 23 -48 33 -87 44
-181 8 -65 21 -137 29 -159 20 -53 20 -131 0 -255 -15 -98 -15 -109 11 -172 6
-16 1 -18 -46 -18 -129 0 -502 49 -521 68 -4 4 4 42 17 83 66 207 54 463 -29
669 -18 43 -21 62 -13 64 7 2 32 9 57 16 25 6 61 27 80 45 19 18 44 38 55 44
27 15 79 5 143 -27z m2116 -627 c73 -35 150 -110 194 -190 18 -33 63 -98 99
-145 109 -137 133 -184 133 -252 0 -76 -22 -119 -107 -209 -37 -39 -81 -94
-98 -123 -16 -29 -35 -61 -41 -70 -6 -10 -30 -22 -55 -27 -45 -11 -89 -42 -89
-66 0 -22 -26 -15 -122 32 -106 53 -163 96 -220 169 -59 75 -68 78 -188 65
-104 -12 -150 -32 -150 -66 0 -13 -11 -14 -72 -7 -89 10 -144 8 -180 -7 -41
-17 -34 -29 8 -16 27 8 53 8 107 -2 146 -26 157 -25 175 14 19 41 175 70 229
41 31 -16 193 -183 193 -199 0 -5 -12 -7 -27 -4 -16 4 -65 12 -109 18 -97 15
-222 6 -866 -61 -114 -11 -172 -41 -268 -135 -41 -40 -88 -84 -103 -97 -66
-54 -97 -315 -58 -485 21 -92 26 -168 15 -210 -9 -34 -19 -28 -32 21 -11 41
-69 123 -79 112 -3 -2 3 -42 11 -88 19 -102 20 -137 4 -140 -7 0 -32 -2 -56
-3 -35 -1 -48 -7 -67 -30 l-24 -30 -1 51 c0 83 -18 154 -55 229 -38 75 -80
133 -90 123 -7 -7 18 -92 66 -221 40 -110 38 -114 -80 -118 l-85 -3 -18 41
c-22 50 -48 182 -48 241 0 76 -38 43 -47 -40 -4 -46 0 -63 30 -128 18 -41 37
-88 41 -104 l7 -28 -83 7 c-46 4 -87 11 -91 15 -5 4 -4 25 2 46 17 63 13 84
-34 179 -31 63 -48 114 -57 169 -8 50 -18 81 -27 84 -22 7 -8 -146 23 -248 44
-145 31 -256 -32 -282 -15 -6 -72 -11 -127 -12 -106 -2 -132 -10 -159 -51 -22
-33 -32 -32 -53 8 -21 40 -20 134 1 267 9 52 16 111 16 131 0 40 -18 99 -30
99 -12 0 -30 -119 -45 -298 -7 -90 -18 -169 -24 -175 -8 -8 -22 -2 -53 20 -89
63 -116 65 -144 11 -20 -38 -29 -27 -39 50 -4 28 -10 52 -15 52 -8 0 -20 -49
-20 -86 0 -31 -6 -30 -54 6 -45 34 -107 40 -144 14 -18 -12 -23 -13 -27 -2 -5
16 -19 122 -36 271 -7 59 -16 107 -20 107 -4 0 -10 -47 -13 -105 -3 -58 -9
-152 -12 -210 -3 -58 -8 -105 -10 -105 -3 0 -27 11 -55 25 -58 30 -69 28 -124
-20 -22 -19 -43 -35 -47 -35 -9 0 -17 31 -20 83 -5 59 -22 48 -31 -20 -5 -35
-12 -63 -16 -63 -4 0 -17 14 -29 30 -30 41 -59 38 -123 -10 -30 -22 -57 -40
-60 -40 -11 0 -18 41 -34 215 -23 241 -40 320 -59 270 -15 -40 -16 -117 -2
-190 26 -129 20 -301 -11 -344 -2 -2 -20 14 -41 37 l-39 42 -117 0 c-117 0
-118 0 -147 29 -28 28 -29 33 -29 118 0 67 6 107 26 168 32 101 44 225 22 225
-17 0 -28 -28 -28 -71 0 -44 -28 -121 -65 -183 -43 -72 -52 -125 -31 -185 9
-24 16 -46 16 -48 0 -3 -17 -2 -37 1 -21 4 -61 0 -90 -7 -53 -14 -53 -14 -53
9 0 12 21 65 46 116 35 73 44 100 40 127 -5 35 -31 81 -45 81 -5 0 -14 -39
-21 -87 -16 -124 -38 -206 -57 -220 -17 -13 -148 -18 -177 -7 -24 9 -20 27 29
174 25 73 43 135 41 137 -9 9 -76 -93 -97 -147 -12 -30 -27 -94 -33 -142 l-11
-88 -29 31 c-27 29 -33 31 -77 25 -28 -4 -50 -2 -54 4 -3 5 3 62 15 126 11 64
19 119 16 121 -16 17 -75 -74 -90 -139 l-13 -53 -11 40 c-16 55 -15 87 7 180
39 163 36 282 -10 430 -17 56 -27 68 -134 167 -148 137 -164 143 -380 151
-104 4 -192 14 -250 27 -49 11 -154 25 -232 31 -142 11 -190 8 -398 -28 l-40
-6 52 59 c146 167 134 157 193 161 30 2 84 -2 120 -9 55 -12 67 -18 79 -42 13
-28 14 -28 75 -21 33 5 100 9 149 9 48 1 87 4 87 7 0 4 -20 12 -45 19 -43 12
-142 9 -191 -5 -16 -5 -30 2 -56 30 -30 32 -42 37 -104 45 -132 17 -160 14
-191 -22 -87 -104 -162 -166 -258 -212 -91 -44 -98 -45 -111 -29 -7 10 -14 21
-14 25 0 11 -56 38 -78 38 -31 0 -66 34 -96 93 -15 30 -59 88 -98 128 -39 41
-79 92 -89 114 -40 88 -16 187 74 298 26 31 66 87 90 124 83 128 167 218 242
256 48 24 76 31 141 35 105 6 108 4 495 -228 166 -100 323 -191 348 -202 100
-43 156 -49 486 -57 204 -5 406 -17 557 -32 208 -20 249 -22 330 -11 132 16
241 54 418 145 233 120 247 127 313 144 70 18 211 23 226 8 5 -5 13 -38 17
-73 l7 -62 -87 -83 c-87 -84 -127 -146 -187 -300 -11 -28 -45 -100 -76 -159
-54 -103 -57 -112 -55 -179 2 -110 23 -159 103 -240 70 -69 129 -152 169 -235
12 -24 26 -44 31 -44 11 0 9 -18 18 152 7 139 9 150 39 205 17 32 46 88 64
125 18 37 35 67 38 68 3 0 13 -20 23 -44 10 -24 36 -68 58 -97 49 -66 55 -92
64 -259 3 -74 10 -139 14 -143 5 -5 32 39 61 97 41 84 63 117 109 158 82 76
109 116 127 191 16 62 16 72 1 132 -9 35 -34 95 -57 132 -22 36 -49 92 -60
122 -24 67 -29 77 -69 162 -33 71 -135 190 -184 215 l-30 16 6 70 c3 38 12 77
19 85 18 22 172 12 258 -17 64 -22 84 -31 305 -144 120 -61 252 -108 360 -127
82 -14 284 -7 435 16 62 9 238 19 430 25 179 5 347 14 374 20 139 29 213 60
346 145 123 79 419 254 490 290 81 41 97 45 180 41 57 -2 89 -9 134 -31z
m-4524 -80 c36 -27 89 -45 130 -45 22 0 27 -7 44 -65 10 -35 18 -68 18 -72 0
-13 -108 -42 -230 -63 -113 -20 -362 -38 -362 -27 0 3 10 23 22 43 17 30 22
54 23 112 0 89 13 104 68 84 55 -20 99 -14 173 23 38 19 72 34 75 35 3 0 20
-11 39 -25z m4984 -706 c53 -42 126 -230 126 -327 0 -38 -21 -98 -40 -112 -3
-3 -26 -30 -49 -60 -48 -60 -101 -161 -138 -260 -14 -36 -44 -106 -69 -157
l-44 -92 0 -211 c0 -168 4 -239 21 -344 13 -80 19 -148 15 -169 -10 -53 -119
-211 -206 -297 -70 -70 -82 -78 -188 -119 -133 -52 -176 -83 -292 -216 -154
-175 -160 -210 -11 -57 133 137 282 232 363 232 81 0 238 95 238 143 0 22 49
117 60 117 17 0 50 -80 50 -122 0 -49 15 -56 36 -16 19 37 20 106 3 278 -15
158 -23 712 -11 797 7 51 20 88 43 127 19 31 36 52 40 48 4 -4 15 -34 24 -67
26 -89 31 -225 11 -319 -30 -147 -14 -233 61 -316 69 -77 73 -94 73 -307 0
-256 -13 -397 -42 -469 -35 -87 -54 -97 -206 -105 -160 -8 -188 -20 -307 -128
-137 -126 -288 -210 -498 -277 -62 -20 -177 -58 -257 -85 -80 -26 -219 -71
-310 -100 -167 -52 -273 -101 -402 -185 -74 -47 -259 -144 -276 -144 -18 0
-215 -135 -297 -204 -44 -37 -116 -91 -161 -121 -114 -75 -441 -251 -489 -263
-22 -6 -89 -16 -150 -22 -60 -6 -150 -17 -200 -25 -168 -27 -411 -37 -585 -26
-89 6 -165 13 -168 15 -4 2 -75 18 -157 35 -183 38 -254 58 -373 105 -157 63
-317 163 -472 297 -83 71 -216 154 -344 214 -64 30 -171 89 -238 131 -146 91
-197 115 -332 154 -221 64 -746 244 -834 285 -106 50 -195 111 -290 197 -103
93 -131 104 -311 117 -167 13 -185 32 -216 231 -23 143 -27 492 -7 558 7 23
33 65 57 92 25 28 52 67 60 87 20 48 20 158 1 248 -9 39 -16 95 -16 125 0 55
38 250 49 250 11 0 52 -68 73 -121 18 -44 22 -81 26 -206 5 -194 -15 -740 -30
-814 -10 -49 -9 -63 6 -103 10 -26 23 -45 29 -43 7 2 19 39 27 82 8 43 20 80
26 82 17 6 51 -39 68 -93 9 -28 26 -61 37 -72 40 -44 126 -77 252 -97 61 -10
233 -132 326 -231 45 -48 81 -91 81 -95 0 -5 7 -9 15 -9 23 0 6 27 -72 119
-134 155 -172 189 -253 222 -206 86 -277 141 -395 310 -92 131 -99 163 -69
301 18 85 28 520 13 579 -5 21 -25 63 -44 94 -19 32 -42 81 -51 109 -45 137
-102 243 -174 322 -52 57 -70 95 -70 147 0 40 38 162 82 267 16 37 70 90 92
90 35 0 103 -86 165 -207 23 -46 45 -73 86 -103 51 -37 56 -45 80 -121 30 -97
30 -100 4 -180 -29 -90 -29 -196 0 -279 22 -63 36 -88 45 -79 2 2 -4 44 -15
94 -23 112 -14 189 30 275 34 65 38 102 16 140 -8 14 -14 28 -15 32 0 7 115
78 126 78 3 0 2 -9 -1 -20 -8 -27 0 -26 114 11 74 24 107 30 144 25 26 -3 59
0 72 6 46 21 108 -45 121 -129 13 -85 -59 -177 -187 -241 -106 -54 -112 -66
-120 -225 -4 -73 -8 -248 -8 -390 -1 -256 -1 -258 24 -307 14 -27 38 -64 53
-82 16 -18 54 -67 85 -109 l56 -77 75 -4 c100 -5 137 -31 247 -178 47 -63 99
-122 115 -132 35 -22 73 -23 138 -3 61 18 153 19 195 2 29 -12 89 -59 215
-165 66 -56 86 -67 86 -48 0 8 -6 19 -13 23 -31 20 -97 108 -97 130 0 31 56
154 77 171 9 6 43 12 75 12 45 0 63 -5 79 -21 27 -27 69 -117 69 -149 0 -35
11 -70 21 -70 5 0 9 12 9 27 0 56 24 193 35 193 5 0 29 -17 51 -38 32 -28 43
-47 49 -81 9 -55 29 -104 49 -121 21 -17 21 5 0 55 -15 37 -12 89 7 101 5 3
22 -5 38 -19 16 -13 48 -27 70 -31 33 -5 45 -13 64 -44 13 -20 26 -45 30 -54
11 -32 27 -19 27 22 0 47 14 51 66 19 31 -19 58 -64 98 -161 8 -21 20 -38 25
-38 14 0 14 10 -4 60 -8 23 -12 46 -9 51 3 5 31 9 62 9 31 0 82 7 112 15 79
21 80 21 80 -26 0 -37 6 -48 49 -90 72 -73 99 -60 41 19 -34 48 -41 102 -12
102 9 0 32 -4 51 -10 25 -7 42 -5 68 5 49 21 57 19 70 -15 20 -53 79 -68 178
-44 18 4 21 0 21 -33 1 -24 13 -59 33 -93 27 -47 32 -51 28 -25 -2 17 -10 51
-17 76 -13 44 -12 49 12 95 14 26 29 49 34 51 5 1 22 -20 39 -48 41 -69 68
-92 118 -98 l42 -6 14 -68 c8 -38 19 -66 25 -64 10 3 15 21 30 109 6 35 9 37
35 32 25 -5 35 2 84 58 30 34 64 74 76 88 l20 25 27 -60 c24 -56 25 -63 14
-105 -24 -87 -25 -96 -8 -82 26 21 60 112 53 139 l-6 25 64 -7 c50 -5 71 -3
96 9 17 9 31 20 31 24 0 4 8 17 18 30 18 23 19 23 55 6 33 -16 43 -16 88 -5
43 11 53 11 60 0 13 -20 3 -53 -33 -104 -17 -24 -29 -47 -26 -51 9 -8 100 63
114 88 7 13 8 34 4 54 -4 19 -4 34 0 34 5 0 48 -9 95 -21 57 -13 101 -18 126
-14 44 8 45 6 23 -59 -15 -45 -13 -71 4 -50 5 5 21 39 36 76 30 72 94 142 124
136 11 -2 19 -16 22 -43 l5 -40 30 45 c22 33 46 53 92 75 33 17 68 36 77 43 8
8 20 11 26 7 15 -9 12 -76 -5 -125 -10 -29 -11 -40 -3 -38 25 9 51 59 56 107
4 44 10 55 53 96 53 50 69 56 69 23 0 -42 24 -208 31 -208 3 0 9 21 12 48 7
55 48 153 77 182 27 27 128 29 153 3 25 -26 77 -132 77 -157 0 -11 -25 -52
-55 -90 -49 -62 -64 -86 -51 -86 7 0 125 98 183 152 29 27 74 58 100 70 48 21
93 21 266 2 39 -4 66 -2 82 6 13 7 58 62 101 122 43 60 94 123 113 139 40 33
116 59 171 59 45 0 53 6 131 109 147 191 144 182 130 504 -6 135 -11 294 -11
353 0 146 -11 167 -107 214 -93 45 -155 98 -182 153 -26 54 -27 97 -1 147 24
48 78 89 90 69 7 -10 14 -10 35 -1 14 7 37 12 51 12 22 0 200 -48 250 -67 14
-5 16 -2 12 15 -8 29 5 28 69 -9 41 -24 53 -35 47 -48 -29 -68 -28 -84 11
-170 32 -71 37 -94 37 -155 0 -39 -5 -99 -12 -133 -24 -122 11 -86 45 47 20
78 19 98 -11 238 -24 112 -25 123 -10 154 8 18 21 50 30 70 9 23 33 50 63 72
27 19 56 48 63 63 8 15 37 64 63 108 84 137 115 158 171 114z m-2090 -1505
c-1 -79 -24 -136 -74 -178 -56 -47 -57 -43 -24 104 21 89 33 118 58 135 33 24
41 13 40 -61z m-3466 33 c26 -28 86 -243 70 -253 -16 -10 -61 29 -87 75 -34
61 -43 201 -13 201 5 0 18 -10 30 -23z m2893 -4 c14 -14 20 -47 29 -141 15
-178 17 -175 -160 -216 -36 -9 -80 -16 -97 -16 -41 0 -47 20 -41 133 4 73 8
88 36 130 18 25 58 67 89 93 50 40 61 45 92 40 19 -3 43 -13 52 -23z m250 6
c18 -35 8 -267 -14 -300 -33 -49 -106 -64 -148 -30 -22 18 -23 19 -10 107 18
116 34 167 66 209 21 28 33 35 60 35 25 0 37 -6 46 -21z m-2773 -17 c32 -30
46 -69 68 -192 19 -106 18 -126 -8 -144 -47 -33 -127 -7 -148 49 -5 12 -10 84
-12 159 -2 112 0 139 12 146 27 17 57 11 88 -18z m1511 9 c38 -38 63 -129 68
-251 6 -120 -6 -194 -31 -203 -7 -3 -31 -1 -52 4 -22 4 -58 9 -82 9 -63 0 -68
17 -54 198 10 138 27 217 53 249 17 19 76 16 98 -6z m1465 -38 c-8 -79 -31
-148 -60 -183 -26 -30 -92 -75 -100 -68 -2 3 5 31 17 64 12 32 29 90 39 127
24 90 43 117 80 117 l30 0 -6 -57z m-3208 23 c14 -14 29 -62 44 -139 7 -33 21
-74 32 -93 11 -18 18 -41 16 -49 -2 -13 -12 -11 -50 15 -58 39 -95 108 -104
197 -8 77 -2 97 28 87 12 -3 27 -12 34 -18z m520 -5 c48 -34 88 -80 117 -135
18 -33 22 -57 21 -123 -1 -97 -10 -113 -68 -113 -48 0 -181 35 -213 56 -26 16
-29 53 -17 222 7 89 7 91 38 106 46 23 78 19 122 -13z m972 14 c37 -26 52
-104 55 -281 l2 -159 -25 -2 c-14 -2 -56 -8 -93 -14 -44 -7 -72 -8 -78 -2 -6
6 -15 52 -21 104 -10 88 -9 101 16 211 22 96 32 121 53 138 31 24 61 26 91 5z
m557 -25 c53 -25 81 -76 100 -175 17 -88 13 -114 -22 -147 -22 -21 -34 -23
-121 -23 l-97 0 -3 65 c-2 36 2 99 8 140 24 160 46 183 135 140z m359 -4 c31
-13 35 -19 41 -68 5 -42 -1 -86 -29 -213 -20 -88 -41 -172 -47 -187 -13 -32
-34 -35 -69 -11 -73 51 -115 154 -108 262 5 73 21 112 73 184 30 41 40 47 70
47 20 0 51 -6 69 -14z m-1206 -40 c6 -21 19 -96 28 -167 20 -166 22 -164 -100
-156 -79 5 -92 9 -117 33 -25 24 -29 35 -28 78 0 28 12 87 27 131 24 72 31 82
67 103 25 14 53 21 75 20 31 -3 36 -7 48 -42z m-346 9 c15 -14 40 -46 55 -73
26 -44 28 -54 28 -157 -1 -82 -5 -118 -17 -141 -17 -32 -101 -114 -117 -114
-17 0 -32 29 -56 111 -52 184 -70 336 -42 371 29 37 111 38 149 3z m2475 -226
c7 -13 13 -59 13 -101 0 -76 0 -76 -29 -83 -29 -6 -63 -32 -79 -62 -9 -14 -13
-15 -26 -4 -21 18 -21 102 -1 163 18 50 78 122 97 116 7 -3 19 -15 25 -29z
m-3450 -21 c50 -54 67 -96 68 -170 0 -91 -14 -104 -59 -55 -22 25 -42 37 -60
37 l-26 0 0 88 c0 63 4 94 16 110 20 29 24 28 61 -10z m3282 -36 c25 -47 -30
-174 -92 -211 -27 -15 -29 -15 -42 2 -19 26 -29 130 -16 156 15 27 87 67 128
70 7 1 17 -7 22 -17z m-3073 -46 c39 -39 44 -48 43 -87 -3 -109 -24 -130 -82
-79 -43 37 -77 107 -77 158 0 46 5 52 43 52 22 0 41 -12 73 -44z m2845 -5 c21
-16 23 -27 23 -115 1 -85 -1 -99 -18 -112 -23 -16 -54 -18 -75 -5 -12 8 -14
29 -12 93 1 46 -3 96 -8 112 -6 15 -9 32 -5 37 9 16 71 10 95 -10z m-2626 -18
c-21 -53 -25 -85 -20 -150 6 -70 6 -73 -17 -83 -16 -8 -32 -8 -50 -1 -33 12
-43 54 -35 149 6 79 26 102 89 102 34 0 39 -3 33 -17z m2214 -39 c46 -65 76
-136 85 -209 6 -43 4 -55 -14 -78 -18 -23 -29 -27 -68 -27 -110 1 -173 38
-175 101 0 37 104 269 122 269 5 0 28 -25 50 -56z m-1780 -85 c28 -66 51 -131
51 -144 0 -14 -12 -38 -27 -55 -23 -25 -41 -33 -95 -42 -77 -14 -111 -4 -130
38 -16 34 1 136 33 200 27 54 97 137 109 129 4 -3 31 -59 59 -126z m2040 69
c6 -26 11 -71 11 -102 0 -48 -3 -57 -31 -80 -35 -30 -69 -41 -102 -32 -21 5
-25 15 -35 78 -6 40 -14 87 -17 103 -3 17 -2 36 3 43 10 14 144 52 153 43 4
-3 11 -27 18 -53z m-2312 16 c76 -22 79 -29 59 -127 -23 -106 -32 -127 -53
-127 -30 1 -118 54 -121 74 -2 11 -1 62 3 114 l7 94 26 -7 c15 -3 50 -13 79
-21z m1579 -9 c15 -23 16 -44 10 -168 -8 -153 -14 -171 -66 -182 -37 -8 -104
20 -135 57 -13 16 -29 48 -36 70 -9 37 -7 52 18 127 25 77 32 88 63 103 19 9
56 17 82 18 40 0 50 -4 64 -25z m-848 4 c63 -13 86 -39 106 -115 20 -77 20
-115 2 -159 -17 -41 -96 -95 -137 -95 -76 0 -89 30 -89 206 0 179 6 187 118
163z m1034 -41 c42 -40 57 -62 62 -91 19 -104 -74 -185 -146 -127 -29 22 -55
122 -43 161 10 33 55 109 64 109 4 0 33 -24 63 -52z m-1226 -18 c45 -83 25
-205 -37 -230 -41 -17 -75 -5 -104 37 -18 27 -25 51 -25 85 0 45 3 51 58 103
31 30 63 54 71 53 7 -2 24 -23 37 -48z m750 9 c14 -12 16 -28 11 -114 -5 -108
-20 -151 -72 -214 -34 -40 -60 -40 -74 0 -14 40 -44 317 -36 336 4 13 19 15
80 11 42 -3 82 -11 91 -19z m-209 -5 c7 -19 -14 -275 -29 -331 -14 -57 -33
-61 -74 -17 -46 48 -60 85 -73 191 -14 111 -14 115 2 137 24 32 163 48 174 20z"/>
<path d="M3235 4011 c-100 -67 -100 -67 -107 -116 -8 -59 -27 -75 -84 -75 -53
0 -140 -18 -175 -36 -15 -7 -46 -34 -70 -59 -49 -51 -64 -54 -142 -25 -44 17
-73 40 -161 130 -58 60 -117 117 -129 125 -12 8 -65 20 -118 26 -81 10 -104 9
-160 -5 -91 -22 -121 -21 -256 9 -44 10 -22 -13 35 -36 59 -25 109 -28 282
-19 93 4 154 -14 239 -74 92 -63 171 -166 171 -222 0 -8 -16 -30 -36 -47 -62
-55 -68 -75 -60 -214 7 -127 11 -153 28 -153 6 0 7 19 3 48 -7 55 8 165 33
236 12 35 28 58 56 78 34 24 48 28 108 28 97 0 147 31 178 108 7 18 21 37 31
42 10 6 66 10 124 10 105 0 107 0 137 31 28 28 30 34 25 82 l-6 52 65 50 c134
103 127 119 -11 26z"/>
<path d="M4790 4072 c0 -5 15 -20 33 -33 112 -80 127 -94 120 -109 -4 -8 -7
-32 -7 -54 0 -30 6 -44 28 -62 25 -22 36 -24 134 -24 118 0 145 -10 156 -56 8
-32 43 -80 65 -90 9 -4 55 -10 102 -14 73 -5 92 -10 121 -32 61 -47 73 -84 76
-246 4 -186 22 -188 40 -6 15 152 11 177 -48 248 -24 29 -40 58 -40 75 0 79
162 232 285 270 54 17 81 19 191 14 136 -6 215 7 259 42 22 18 34 19 -100 -6
-49 -10 -79 -9 -171 6 -92 14 -124 15 -183 6 -97 -15 -138 -38 -202 -112 -110
-128 -131 -147 -177 -167 -91 -38 -88 -39 -144 18 -63 64 -96 78 -195 86 -105
9 -130 24 -143 90 -11 52 -13 54 -90 104 -89 57 -110 67 -110 52z"/>
<path d="M6140 1321 c-47 -16 -143 -53 -215 -84 -144 -61 -156 -64 -237 -53
-65 9 -85 1 -293 -123 -66 -39 -127 -75 -135 -80 -15 -8 -35 -69 -26 -79 12
-11 107 42 178 100 71 56 156 98 200 98 46 0 157 34 243 75 140 66 164 75 213
75 35 0 59 9 113 42 106 65 94 74 -41 29z"/>
<path d="M2300 1284 c-8 -1 -36 -6 -62 -9 -80 -10 -54 -25 45 -25 109 0 178
-18 233 -60 182 -138 298 -208 409 -245 30 -10 69 -34 95 -60 56 -52 66 -56
139 -48 54 5 60 8 64 32 3 14 2 29 -2 34 -20 20 -292 115 -350 121 -99 11
-168 51 -237 137 -31 39 -77 84 -102 100 -42 27 -53 29 -131 28 -48 -1 -93 -3
-101 -5z"/>
<path d="M3252 865 c0 -16 2 -22 5 -12 2 9 2 23 0 30 -3 6 -5 -1 -5 -18z"/>
<path d="M3340 835 c-14 -36 -13 -43 9 -55 22 -11 121 -14 121 -2 0 6 -71 56
-108 76 -7 5 -16 -3 -22 -19z"/>
<path d="M4868 788 c-102 -63 -117 -76 -127 -109 -20 -67 -17 -73 28 -48 22
12 68 46 103 76 34 30 75 65 91 78 16 14 27 33 27 49 0 14 -1 26 -2 26 -2 0
-55 -33 -120 -72z"/>
<path d="M3500 705 c0 -42 3 -47 53 -84 55 -41 116 -75 123 -68 7 6 23 101 18
108 -2 4 -21 9 -41 12 -21 4 -64 22 -96 41 l-57 35 0 -44z"/>
<path d="M3845 660 c-11 -17 5 -30 36 -30 28 0 29 -2 29 -45 0 -58 17 -58 53
1 33 55 34 70 5 78 -36 9 -116 7 -123 -4z"/>
<path d="M4420 600 c-41 -10 -88 -19 -105 -19 -42 -2 -51 -10 -58 -53 -6 -37
-5 -38 27 -38 43 0 209 29 218 38 11 12 14 85 3 87 -6 1 -44 -6 -85 -15z"/>
</g>
</svg>
