<?xml version="1.0" standalone="no"?>
<!DOCTYPE svg PUBLIC "-//W3C//DTD SVG 20010904//EN"
 "http://www.w3.org/TR/2001/REC-SVG-20010904/DTD/svg10.dtd">
<svg version="1.0" xmlns="http://www.w3.org/2000/svg"
 width="90.000000pt" height="90.000000pt" viewBox="0 0 90.000000 90.000000"
 preserveAspectRatio="xMidYMid meet">

<g transform="translate(0.000000,90.000000) scale(0.100000,-0.100000)"
fill="#ffffff" stroke="none">
<path d="M355 796 c-107 -34 -186 -102 -232 -201 -38 -81 -40 -203 -5 -281
l23 -51 -20 -74 c-12 -40 -21 -79 -21 -86 0 -8 26 -5 86 12 l87 23 45 -20 c65
-29 155 -34 226 -14 107 31 185 99 233 201 24 51 28 73 28 145 0 72 -4 94 -28
145 -30 65 -81 124 -138 160 -78 50 -199 68 -284 41z m9 -198 c25 -39 29 -74
12 -100 -15 -23 -14 -26 15 -61 17 -21 48 -46 68 -57 l38 -19 25 26 25 25 42
-21 c47 -25 55 -56 20 -87 -70 -63 -258 37 -320 171 -24 51 -24 72 1 113 23
38 53 42 74 10z"/>
</g>
</svg>
